<svg width="1280" height="640" viewBox="0 0 1280 640" fill="none" xmlns="http://www.w3.org/2000/svg">
  <rect width="1280" height="640" rx="32" fill="#120F16"/>
  <rect x="16" y="16" width="1248" height="608" rx="24" fill="url(#bg)"/>
  <circle cx="952" cy="154" r="118" fill="url(#glow1)"/>
  <circle cx="1054" cy="226" r="162" fill="url(#glow2)"/>
  <circle cx="1048" cy="486" r="182" fill="url(#glow3)"/>
  <g opacity="0.92">
    <rect x="102" y="148" width="220" height="220" rx="44" fill="#15131F" />
    <rect x="112" y="158" width="200" height="200" rx="36" fill="url(#card)" />
    <path d="M159 229C159 217.402 168.402 208 180 208H226C237.598 208 247 217.402 247 229V291C247 302.598 237.598 312 226 312H180C168.402 312 159 302.598 159 291V229Z" fill="#0F1018" stroke="#FFD29B" stroke-width="6"/>
    <path d="M194 238L233 260L194 282V238Z" fill="#F3A95E"/>
    <path d="M130 234L145 191L172 219L130 234Z" fill="#D67A3C"/>
    <path d="M284 234L269 191L242 219L284 234Z" fill="#D67A3C"/>
    <rect x="135" y="296" width="18" height="38" rx="9" fill="#FFCF96"/>
    <rect x="161" y="283" width="18" height="51" rx="9" fill="#F3A95E"/>
    <rect x="187" y="305" width="18" height="29" rx="9" fill="#C56A2D"/>
    <rect x="213" y="289" width="18" height="45" rx="9" fill="#FFCF96"/>
    <rect x="239" y="275" width="18" height="59" rx="9" fill="#F3A95E"/>
  </g>
  <text x="390" y="238" fill="#FFF7EA" font-family="Segoe UI, Arial, sans-serif" font-size="64" font-weight="700">LTX2.3 ComfyUI Skill Repo</text>
  <text x="392" y="296" fill="#FFD9B0" font-family="Segoe UI, Arial, sans-serif" font-size="24">Remote GPU automation, workflow references, and bilingual operator docs</text>
  <text x="392" y="360" fill="#FFF0DA" font-family="Segoe UI, Arial, sans-serif" font-size="28" font-weight="600">Text / Image + Audio to Video with ComfyUI</text>
  <text x="392" y="402" fill="#E7D6BF" font-family="Segoe UI, Arial, sans-serif" font-size="20">Scripted setup • ComfyUI start automation • parameter reference • remote generation checks</text>
  <rect x="392" y="450" width="172" height="42" rx="21" fill="#C56A2D"/>
  <text x="423" y="477" fill="#FFF8EE" font-family="Segoe UI, Arial, sans-serif" font-size="18" font-weight="700">MIT Licensed</text>
  <rect x="582" y="450" width="202" height="42" rx="21" fill="rgba(255, 227, 192, 0.12)" stroke="rgba(255, 218, 176, 0.45)"/>
  <text x="613" y="477" fill="#FFE5C1" font-family="Segoe UI, Arial, sans-serif" font-size="18" font-weight="700">Remote GPU Ready</text>
  <defs>
    <linearGradient id="bg" x1="76" y1="42" x2="1163" y2="590" gradientUnits="userSpaceOnUse">
      <stop stop-color="#1F1516"/>
      <stop offset="0.42" stop-color="#151B2A"/>
      <stop offset="1" stop-color="#352014"/>
    </linearGradient>
    <linearGradient id="card" x1="124" y1="164" x2="306" y2="358" gradientUnits="userSpaceOnUse">
      <stop stop-color="#2D1B18"/>
      <stop offset="0.52" stop-color="#1A2233"/>
      <stop offset="1" stop-color="#4A2710"/>
    </linearGradient>
    <radialGradient id="glow1" cx="0" cy="0" r="1" gradientUnits="userSpaceOnUse" gradientTransform="translate(952 154) rotate(90) scale(118)">
      <stop stop-color="rgba(255, 191, 123, 0.38)"/>
      <stop offset="1" stop-color="rgba(255, 191, 123, 0)"/>
    </radialGradient>
    <radialGradient id="glow2" cx="0" cy="0" r="1" gradientUnits="userSpaceOnUse" gradientTransform="translate(1054 226) rotate(90) scale(162)">
      <stop stop-color="rgba(79, 160, 255, 0.18)"/>
      <stop offset="1" stop-color="rgba(79, 160, 255, 0)"/>
    </radialGradient>
    <radialGradient id="glow3" cx="0" cy="0" r="1" gradientUnits="userSpaceOnUse" gradientTransform="translate(1048 486) rotate(90) scale(182)">
      <stop stop-color="rgba(255, 170, 89, 0.18)"/>
      <stop offset="1" stop-color="rgba(255, 170, 89, 0)"/>
    </radialGradient>
  </defs>
</svg>
